<?xml version="1.0" encoding="utf-8"?>
<!-- Generator: Adobe Illustrator 27.5.0, SVG Export Plug-In . SVG Version: 6.00 Build 0)  -->
<svg version="1.1" xmlns="http://www.w3.org/2000/svg" xmlns:xlink="http://www.w3.org/1999/xlink" x="0px" y="0px"
	 viewBox="0 0 800 800" style="enable-background:new 0 0 800 800;" xml:space="preserve">
<g id="BACKGROUND">
	<rect style="fill:#16688A;" width="800" height="800"/>
</g>
<g id="DESIGNED_BY_FREEPIK">
	<g>
		<g>
			<path style="fill:#074661;" d="M288.492,774.287v-0.258c-0.349,0.398-0.691,0.725-1.03,0.973
				c-0.339,0.252-0.706,0.441-1.102,0.57c-0.396,0.133-0.827,0.195-1.296,0.195c-0.621,0-1.195-0.131-1.725-0.393
				c-0.528-0.264-0.985-0.639-1.371-1.127c-0.388-0.486-0.68-1.058-0.879-1.719c-0.199-0.658-0.3-1.371-0.3-2.137
				c0-1.621,0.396-2.885,1.188-3.791c0.792-0.904,1.833-1.358,3.125-1.358c0.747,0,1.377,0.129,1.89,0.385
				c0.514,0.256,1.014,0.652,1.501,1.182v-3.826c0-0.533,0.105-0.934,0.318-1.207c0.212-0.271,0.514-0.408,0.907-0.408
				c0.393,0,0.694,0.125,0.906,0.375c0.213,0.252,0.318,0.619,0.318,1.108v11.435c0,0.494-0.113,0.863-0.342,1.111
				c-0.228,0.246-0.521,0.369-0.883,0.369c-0.355,0-0.648-0.127-0.879-0.383C288.607,775.127,288.492,774.762,288.492,774.287z
				 M283.392,770.479c0,0.703,0.109,1.301,0.328,1.795c0.219,0.494,0.518,0.865,0.897,1.115c0.38,0.25,0.795,0.377,1.244,0.377
				c0.456,0,0.872-0.119,1.249-0.357c0.377-0.236,0.678-0.602,0.902-1.092c0.225-0.49,0.337-1.106,0.337-1.838
				c0-0.691-0.112-1.285-0.337-1.783c-0.225-0.496-0.528-0.875-0.912-1.139c-0.383-0.262-0.803-0.392-1.258-0.392
				c-0.475,0-0.899,0.135-1.273,0.402c-0.373,0.269-0.663,0.654-0.868,1.158C283.494,769.229,283.392,769.813,283.392,770.479z"/>
			<path style="fill:#074661;" d="M299.926,771.135h-5.071c0.007,0.588,0.125,1.107,0.356,1.557c0.23,0.449,0.538,0.789,0.921,1.016
				c0.384,0.229,0.807,0.342,1.269,0.342c0.31,0,0.593-0.035,0.85-0.107c0.257-0.074,0.505-0.188,0.746-0.344
				c0.241-0.154,0.462-0.32,0.665-0.498c0.202-0.178,0.464-0.42,0.788-0.723c0.133-0.113,0.323-0.172,0.57-0.172
				c0.266,0,0.48,0.074,0.645,0.221c0.165,0.147,0.248,0.35,0.248,0.617c0,0.234-0.093,0.506-0.275,0.82
				c-0.185,0.314-0.462,0.615-0.831,0.902c-0.372,0.289-0.836,0.527-1.397,0.717c-0.56,0.191-1.204,0.285-1.933,0.285
				c-1.664,0-2.96-0.475-3.884-1.424c-0.925-0.949-1.387-2.238-1.387-3.865c0-0.768,0.113-1.479,0.342-2.133
				c0.228-0.656,0.56-1.217,0.997-1.685c0.437-0.469,0.975-0.828,1.615-1.078c0.639-0.25,1.349-0.375,2.127-0.375
				c1.013,0,1.882,0.213,2.606,0.641c0.726,0.428,1.27,0.98,1.63,1.656c0.359,0.678,0.541,1.369,0.541,2.07
				c0,0.654-0.186,1.076-0.56,1.27C301.131,771.037,300.604,771.135,299.926,771.135z M294.854,769.662h4.702
				c-0.063-0.887-0.304-1.551-0.718-1.99c-0.415-0.441-0.96-0.66-1.638-0.66c-0.647,0-1.177,0.223-1.591,0.668
				C295.195,768.127,294.944,768.787,294.854,769.662z"/>
			<path style="fill:#074661;" d="M311.741,772.377c0,0.715-0.174,1.328-0.522,1.838c-0.348,0.51-0.862,0.897-1.544,1.16
				c-0.68,0.262-1.508,0.393-2.483,0.393c-0.931,0-1.729-0.143-2.394-0.428c-0.664-0.283-1.155-0.641-1.472-1.066
				c-0.316-0.43-0.475-0.857-0.475-1.289c0-0.285,0.1-0.527,0.304-0.73c0.202-0.201,0.459-0.303,0.77-0.303
				c0.271,0,0.48,0.066,0.626,0.199c0.147,0.133,0.286,0.32,0.418,0.559c0.266,0.465,0.585,0.807,0.955,1.037
				c0.37,0.227,0.875,0.342,1.516,0.342c0.519,0,0.944-0.117,1.277-0.348c0.332-0.232,0.498-0.496,0.498-0.793
				c0-0.457-0.172-0.787-0.517-0.996c-0.346-0.209-0.914-0.41-1.705-0.6c-0.893-0.221-1.619-0.455-2.18-0.699
				c-0.56-0.242-1.009-0.564-1.344-0.963c-0.336-0.398-0.504-0.891-0.504-1.473c0-0.518,0.155-1.01,0.466-1.473
				c0.31-0.461,0.767-0.83,1.373-1.105c0.604-0.275,1.333-0.414,2.189-0.414c0.671,0,1.274,0.07,1.809,0.211
				c0.536,0.137,0.983,0.326,1.34,0.561c0.358,0.232,0.63,0.492,0.816,0.777c0.187,0.285,0.28,0.563,0.28,0.836
				c0,0.297-0.1,0.541-0.299,0.732c-0.199,0.188-0.482,0.285-0.851,0.285c-0.266,0-0.492-0.076-0.679-0.231
				c-0.186-0.15-0.4-0.379-0.641-0.682c-0.196-0.254-0.427-0.457-0.693-0.609c-0.266-0.152-0.627-0.227-1.083-0.227
				c-0.469,0-0.857,0.098-1.168,0.299c-0.31,0.199-0.466,0.447-0.466,0.744c0,0.273,0.114,0.496,0.342,0.67
				c0.228,0.176,0.535,0.32,0.922,0.434c0.387,0.113,0.917,0.252,1.596,0.416c0.804,0.197,1.46,0.432,1.971,0.703
				c0.509,0.272,0.896,0.594,1.159,0.965C311.61,771.481,311.741,771.902,311.741,772.377z"/>
			<path style="fill:#074661;" d="M314.39,764.019c-0.36,0-0.669-0.111-0.926-0.332c-0.256-0.221-0.385-0.535-0.385-0.941
				c0-0.367,0.132-0.668,0.395-0.906c0.263-0.238,0.568-0.357,0.916-0.357c0.336,0,0.634,0.107,0.893,0.324
				c0.26,0.215,0.391,0.527,0.391,0.94c0,0.4-0.128,0.711-0.381,0.935C315.039,763.906,314.738,764.019,314.39,764.019z
				 M315.673,766.697v7.494c0,0.519-0.124,0.912-0.371,1.178c-0.247,0.266-0.56,0.398-0.94,0.398c-0.38,0-0.688-0.135-0.926-0.408
				c-0.238-0.271-0.356-0.662-0.356-1.168v-7.418c0-0.512,0.118-0.898,0.356-1.158c0.237-0.26,0.546-0.391,0.926-0.391
				c0.381,0,0.693,0.131,0.94,0.391C315.549,765.875,315.673,766.236,315.673,766.697z"/>
			<path style="fill:#074661;" d="M327.031,767.125v7.531c0,0.861-0.093,1.604-0.276,2.225c-0.183,0.619-0.478,1.133-0.883,1.537
				c-0.405,0.404-0.936,0.707-1.591,0.902c-0.655,0.197-1.471,0.295-2.446,0.295c-0.893,0-1.69-0.125-2.394-0.375
				c-0.702-0.252-1.243-0.574-1.624-0.969c-0.379-0.396-0.57-0.803-0.57-1.221c0-0.316,0.108-0.576,0.324-0.773
				c0.215-0.201,0.475-0.301,0.778-0.301c0.38,0,0.712,0.168,0.997,0.504c0.139,0.17,0.283,0.344,0.432,0.517
				c0.149,0.176,0.315,0.324,0.494,0.447c0.181,0.123,0.397,0.215,0.65,0.275c0.254,0.059,0.546,0.09,0.874,0.09
				c0.672,0,1.192-0.094,1.563-0.281c0.37-0.185,0.63-0.447,0.778-0.783c0.149-0.334,0.236-0.693,0.262-1.078
				c0.025-0.383,0.044-0.998,0.057-1.848c-0.399,0.559-0.859,0.982-1.383,1.273c-0.521,0.291-1.145,0.438-1.865,0.438
				c-0.868,0-1.626-0.223-2.275-0.666c-0.648-0.443-1.147-1.063-1.495-1.861c-0.349-0.799-0.523-1.719-0.523-2.764
				c0-0.777,0.105-1.482,0.317-2.107c0.213-0.629,0.516-1.156,0.907-1.588c0.393-0.43,0.846-0.754,1.358-0.973
				c0.513-0.219,1.076-0.328,1.69-0.328c0.734,0,1.371,0.143,1.909,0.422c0.538,0.283,1.039,0.725,1.501,1.326v-0.352
				c0-0.449,0.11-0.797,0.332-1.045c0.222-0.246,0.507-0.371,0.855-0.371c0.5,0,0.832,0.164,0.996,0.49
				C326.948,766.041,327.031,766.512,327.031,767.125z M319.519,770.412c0,1.051,0.229,1.846,0.688,2.383
				c0.459,0.539,1.054,0.809,1.781,0.809c0.431,0,0.837-0.117,1.22-0.348c0.384-0.231,0.695-0.58,0.937-1.045
				c0.24-0.465,0.361-1.029,0.361-1.695c0-1.057-0.232-1.881-0.698-2.469c-0.466-0.588-1.078-0.883-1.839-0.883
				c-0.741,0-1.334,0.281-1.78,0.846C319.741,768.572,319.519,769.373,319.519,770.412z"/>
			<path style="fill:#074661;" d="M331.152,766.66v0.313c0.455-0.602,0.954-1.043,1.495-1.324c0.542-0.281,1.163-0.424,1.866-0.424
				c0.684,0,1.295,0.15,1.834,0.447c0.537,0.299,0.94,0.719,1.205,1.262c0.172,0.318,0.282,0.66,0.333,1.027
				c0.051,0.367,0.077,0.836,0.077,1.406v4.824c0,0.519-0.119,0.912-0.357,1.178c-0.237,0.266-0.546,0.398-0.926,0.398
				c-0.387,0-0.699-0.135-0.94-0.408c-0.241-0.271-0.36-0.662-0.36-1.168v-4.322c0-0.853-0.119-1.508-0.356-1.961
				c-0.238-0.451-0.711-0.68-1.421-0.68c-0.461,0-0.883,0.139-1.263,0.414c-0.38,0.275-0.658,0.654-0.836,1.135
				c-0.126,0.387-0.189,1.108-0.189,2.166v3.248c0,0.525-0.123,0.92-0.365,1.184c-0.244,0.262-0.559,0.393-0.945,0.393
				c-0.374,0-0.681-0.135-0.922-0.408c-0.24-0.271-0.36-0.662-0.36-1.168v-7.494c0-0.494,0.107-0.863,0.322-1.108
				c0.216-0.242,0.51-0.365,0.883-0.365c0.229,0,0.435,0.055,0.619,0.162c0.183,0.109,0.33,0.27,0.441,0.484
				C331.097,766.086,331.152,766.35,331.152,766.66z"/>
			<path style="fill:#074661;" d="M346.927,771.135h-5.071c0.007,0.588,0.124,1.107,0.356,1.557c0.23,0.449,0.537,0.789,0.921,1.016
				c0.382,0.229,0.806,0.342,1.268,0.342c0.31,0,0.594-0.035,0.851-0.107c0.256-0.074,0.504-0.188,0.746-0.344
				c0.239-0.154,0.461-0.32,0.665-0.498c0.201-0.178,0.464-0.42,0.787-0.723c0.133-0.113,0.323-0.172,0.57-0.172
				c0.266,0,0.482,0.074,0.646,0.221c0.165,0.147,0.247,0.35,0.247,0.617c0,0.234-0.092,0.506-0.275,0.82
				c-0.185,0.314-0.461,0.615-0.832,0.902c-0.37,0.289-0.835,0.527-1.396,0.717c-0.561,0.191-1.205,0.285-1.933,0.285
				c-1.665,0-2.96-0.475-3.886-1.424c-0.923-0.949-1.386-2.238-1.386-3.865c0-0.768,0.114-1.479,0.342-2.133
				c0.227-0.656,0.56-1.217,0.998-1.685c0.436-0.469,0.975-0.828,1.614-1.078c0.639-0.25,1.349-0.375,2.128-0.375
				c1.013,0,1.881,0.213,2.605,0.641c0.726,0.428,1.269,0.98,1.63,1.656c0.36,0.678,0.542,1.369,0.542,2.07
				c0,0.654-0.187,1.076-0.561,1.27C348.131,771.037,347.604,771.135,346.927,771.135z M341.855,769.662h4.701
				c-0.063-0.887-0.303-1.551-0.717-1.99c-0.415-0.441-0.961-0.66-1.639-0.66c-0.647,0-1.177,0.223-1.592,0.668
				C342.194,768.127,341.944,768.787,341.855,769.662z"/>
			<path style="fill:#074661;" d="M357.496,774.287v-0.258c-0.348,0.398-0.691,0.725-1.03,0.973
				c-0.339,0.252-0.705,0.441-1.102,0.57c-0.395,0.133-0.827,0.195-1.296,0.195c-0.621,0-1.195-0.131-1.724-0.393
				c-0.529-0.264-0.986-0.639-1.373-1.127c-0.387-0.486-0.679-1.058-0.878-1.719c-0.2-0.658-0.3-1.371-0.3-2.137
				c0-1.621,0.396-2.885,1.188-3.791c0.791-0.904,1.833-1.358,3.125-1.358c0.747,0,1.377,0.129,1.89,0.385s1.014,0.652,1.5,1.182
				v-3.826c0-0.533,0.106-0.934,0.319-1.207c0.211-0.271,0.515-0.408,0.907-0.408c0.392,0,0.694,0.125,0.906,0.375
				c0.212,0.252,0.318,0.619,0.318,1.108v11.435c0,0.494-0.113,0.863-0.342,1.111c-0.228,0.246-0.521,0.369-0.883,0.369
				c-0.354,0-0.647-0.127-0.879-0.383C357.612,775.127,357.496,774.762,357.496,774.287z M352.396,770.479
				c0,0.703,0.108,1.301,0.327,1.795c0.219,0.494,0.518,0.865,0.898,1.115c0.38,0.25,0.794,0.377,1.243,0.377
				c0.457,0,0.873-0.119,1.249-0.357c0.377-0.236,0.679-0.602,0.902-1.092c0.226-0.49,0.338-1.106,0.338-1.838
				c0-0.691-0.112-1.285-0.338-1.783c-0.224-0.496-0.528-0.875-0.911-1.139c-0.384-0.262-0.803-0.392-1.259-0.392
				c-0.475,0-0.899,0.135-1.272,0.402c-0.373,0.269-0.663,0.654-0.869,1.158C352.499,769.229,352.396,769.813,352.396,770.479z"/>
			<path style="fill:#074661;" d="M368.095,762.852v3.959c0.487-0.506,0.984-0.894,1.491-1.162c0.506-0.269,1.134-0.404,1.881-0.404
				c0.861,0,1.615,0.205,2.266,0.611c0.647,0.41,1.151,1.002,1.51,1.777c0.357,0.775,0.537,1.695,0.537,2.76
				c0,0.785-0.101,1.504-0.3,2.16c-0.199,0.656-0.489,1.225-0.869,1.705c-0.38,0.48-0.841,0.854-1.382,1.117
				c-0.542,0.262-1.139,0.393-1.79,0.393c-0.399,0-0.775-0.047-1.126-0.143c-0.352-0.094-0.651-0.219-0.897-0.375
				c-0.246-0.154-0.457-0.315-0.632-0.479c-0.174-0.164-0.404-0.412-0.689-0.742v0.258c0,0.486-0.117,0.855-0.352,1.107
				c-0.233,0.25-0.531,0.373-0.893,0.373c-0.367,0-0.66-0.123-0.879-0.373c-0.219-0.252-0.327-0.621-0.327-1.107v-11.322
				c0-0.525,0.105-0.924,0.317-1.191c0.212-0.269,0.509-0.404,0.889-0.404c0.399,0,0.706,0.129,0.921,0.385
				C367.986,762.012,368.095,762.375,368.095,762.852z M368.218,770.555c0,1.031,0.236,1.824,0.708,2.377
				c0.472,0.555,1.091,0.834,1.856,0.834c0.652,0,1.215-0.283,1.686-0.852c0.472-0.566,0.708-1.379,0.708-2.436
				c0-0.684-0.098-1.273-0.294-1.768c-0.197-0.494-0.475-0.875-0.836-1.144c-0.361-0.268-0.782-0.402-1.264-0.402
				c-0.493,0-0.935,0.135-1.32,0.402c-0.386,0.269-0.689,0.658-0.912,1.168C368.329,769.244,368.218,769.852,368.218,770.555z"/>
			<path style="fill:#074661;" d="M379.141,776.092l0.237-0.58l-3.191-8.035c-0.196-0.461-0.295-0.799-0.295-1.008
				c0-0.221,0.058-0.426,0.171-0.615c0.114-0.191,0.271-0.344,0.47-0.457c0.2-0.115,0.407-0.172,0.623-0.172
				c0.373,0,0.654,0.119,0.846,0.357c0.19,0.236,0.357,0.576,0.503,1.02l2.194,6.383l2.08-5.936c0.164-0.48,0.313-0.857,0.446-1.131
				c0.133-0.272,0.273-0.455,0.422-0.549c0.148-0.096,0.359-0.144,0.632-0.144c0.197,0,0.385,0.053,0.565,0.158
				c0.181,0.104,0.319,0.244,0.418,0.422c0.098,0.178,0.147,0.363,0.147,0.56c-0.026,0.119-0.066,0.291-0.124,0.514
				c-0.058,0.221-0.126,0.447-0.208,0.674l-3.382,8.852c-0.292,0.779-0.576,1.389-0.855,1.832c-0.278,0.443-0.646,0.785-1.106,1.021
				c-0.459,0.238-1.078,0.357-1.856,0.357c-0.76,0-1.33-0.082-1.709-0.246c-0.381-0.166-0.57-0.467-0.57-0.904
				c0-0.297,0.09-0.527,0.271-0.688c0.18-0.162,0.447-0.244,0.801-0.244c0.14,0,0.276,0.019,0.409,0.059
				c0.165,0.037,0.307,0.057,0.427,0.057c0.298,0,0.532-0.043,0.704-0.133c0.17-0.088,0.323-0.242,0.46-0.461
				C378.806,776.838,378.963,776.516,379.141,776.092z"/>
		</g>
		<g>
			<path style="fill:#074661;" d="M416.703,765.449h0.619v-0.777c0-0.814,0.1-1.457,0.307-1.938
				c0.203-0.478,0.555-0.826,1.047-1.045c0.49-0.217,1.162-0.326,2.016-0.326c1.52,0,2.273,0.367,2.273,1.113
				c0,0.238-0.08,0.445-0.24,0.615c-0.154,0.17-0.344,0.256-0.559,0.256c-0.1,0-0.277-0.018-0.527-0.059
				c-0.236-0.033-0.451-0.057-0.623-0.057c-0.467,0-0.766,0.141-0.904,0.416c-0.127,0.275-0.195,0.668-0.195,1.184v0.617h0.633
				c0.99,0,1.48,0.297,1.48,0.896c0,0.418-0.127,0.69-0.393,0.805c-0.262,0.113-0.623,0.17-1.088,0.17h-0.633v6.871
				c0,0.512-0.121,0.9-0.369,1.168c-0.242,0.273-0.555,0.406-0.943,0.406c-0.367,0-0.67-0.133-0.918-0.406
				c-0.244-0.268-0.363-0.656-0.363-1.168v-6.871h-0.715c-0.389,0-0.682-0.084-0.893-0.262c-0.209-0.17-0.314-0.398-0.314-0.678
				C415.4,765.758,415.834,765.449,416.703,765.449"/>
			<path style="fill:#074661;" d="M425.193,772.023v2.168c0,0.523-0.133,0.92-0.375,1.18c-0.246,0.266-0.559,0.395-0.938,0.395
				c-0.381,0-0.688-0.131-0.926-0.4c-0.236-0.264-0.361-0.656-0.361-1.174v-7.223c0-1.166,0.42-1.748,1.262-1.748
				c0.434,0,0.742,0.135,0.934,0.408c0.189,0.273,0.295,0.674,0.316,1.207c0.309-0.533,0.625-0.934,0.949-1.207
				c0.332-0.273,0.762-0.408,1.309-0.408c0.549,0,1.072,0.135,1.586,0.408c0.516,0.273,0.772,0.637,0.772,1.084
				c0,0.314-0.111,0.58-0.326,0.781c-0.221,0.209-0.455,0.313-0.707,0.313c-0.1,0-0.33-0.063-0.691-0.18
				c-0.365-0.113-0.69-0.174-0.963-0.174c-0.381,0-0.693,0.103-0.932,0.299c-0.242,0.205-0.432,0.496-0.565,0.887
				c-0.129,0.395-0.219,0.865-0.273,1.404C425.215,770.584,425.193,771.246,425.193,772.023"/>
			<path style="fill:#074661;" d="M437.113,771.131h-5.074c0.01,0.588,0.125,1.111,0.355,1.559c0.234,0.447,0.539,0.787,0.924,1.017
				c0.385,0.227,0.805,0.34,1.27,0.34c0.31,0,0.592-0.033,0.85-0.111c0.254-0.07,0.504-0.185,0.744-0.342
				c0.242-0.152,0.461-0.318,0.664-0.5c0.203-0.174,0.467-0.416,0.791-0.719c0.135-0.113,0.324-0.174,0.568-0.174
				c0.268,0,0.48,0.074,0.648,0.223c0.166,0.146,0.244,0.35,0.244,0.617c0,0.234-0.09,0.508-0.268,0.818
				c-0.188,0.318-0.463,0.617-0.836,0.906c-0.375,0.285-0.84,0.527-1.398,0.715c-0.559,0.189-1.205,0.285-1.932,0.285
				c-1.67,0-2.963-0.473-3.887-1.422c-0.924-0.951-1.391-2.242-1.391-3.867c0-0.768,0.117-1.479,0.348-2.135
				c0.225-0.658,0.557-1.217,0.998-1.688c0.436-0.471,0.971-0.828,1.613-1.078c0.637-0.25,1.346-0.375,2.127-0.375
				c1.012,0,1.881,0.215,2.607,0.647c0.723,0.422,1.273,0.977,1.629,1.654c0.361,0.68,0.541,1.367,0.541,2.074
				c0,0.648-0.188,1.07-0.561,1.266C438.316,771.035,437.791,771.131,437.113,771.131 M432.039,769.656h4.701
				c-0.063-0.885-0.297-1.549-0.713-1.986c-0.418-0.441-0.959-0.66-1.641-0.66c-0.646,0-1.178,0.221-1.592,0.67
				C432.381,768.125,432.127,768.783,432.039,769.656"/>
			<path style="fill:#074661;" d="M447.9,771.131h-5.072c0.006,0.588,0.125,1.111,0.353,1.559c0.233,0.447,0.539,0.787,0.922,1.017
				c0.383,0.227,0.805,0.34,1.272,0.34c0.307,0,0.592-0.033,0.844-0.111c0.26-0.07,0.506-0.185,0.75-0.342
				c0.242-0.152,0.461-0.318,0.664-0.5c0.199-0.174,0.465-0.416,0.789-0.719c0.135-0.113,0.326-0.174,0.568-0.174
				c0.268,0,0.482,0.074,0.65,0.223c0.164,0.146,0.24,0.35,0.24,0.617c0,0.234-0.088,0.508-0.273,0.818
				c-0.178,0.318-0.455,0.617-0.83,0.906c-0.371,0.285-0.84,0.527-1.396,0.715c-0.557,0.189-1.207,0.285-1.934,0.285
				c-1.668,0-2.959-0.473-3.887-1.422c-0.924-0.951-1.389-2.242-1.389-3.867c0-0.768,0.115-1.479,0.348-2.135
				c0.227-0.658,0.559-1.217,0.996-1.688c0.436-0.471,0.973-0.828,1.613-1.078c0.639-0.25,1.352-0.375,2.129-0.375
				c1.01,0,1.879,0.215,2.613,0.647c0.721,0.422,1.266,0.977,1.621,1.654c0.359,0.68,0.545,1.367,0.545,2.074
				c0,0.648-0.191,1.07-0.56,1.266C449.102,771.035,448.576,771.131,447.9,771.131 M442.828,769.656h4.701
				c-0.065-0.885-0.305-1.549-0.715-1.986c-0.422-0.441-0.963-0.66-1.643-0.66c-0.646,0-1.176,0.221-1.594,0.67
				C443.166,768.125,442.912,768.783,442.828,769.656"/>
			<path style="fill:#074661;" d="M453.58,766.68v0.31c0.486-0.602,0.994-1.043,1.525-1.324c0.517-0.285,1.117-0.428,1.781-0.428
				c0.795,0,1.535,0.209,2.207,0.617c0.672,0.414,1.199,1.016,1.59,1.807c0.389,0.795,0.586,1.73,0.586,2.815
				c0,0.795-0.113,1.531-0.336,2.201c-0.225,0.668-0.537,1.227-0.93,1.68c-0.393,0.449-0.855,0.801-1.389,1.045
				c-0.543,0.242-1.111,0.363-1.728,0.363c-0.738,0-1.363-0.148-1.865-0.447c-0.502-0.291-0.982-0.733-1.441-1.305v3.893
				c0,1.135-0.416,1.709-1.244,1.709c-0.49,0-0.809-0.146-0.971-0.439c-0.152-0.299-0.234-0.723-0.234-1.291v-11.193
				c0-0.494,0.107-0.859,0.32-1.107c0.215-0.238,0.512-0.363,0.885-0.363c0.369,0,0.666,0.125,0.897,0.373
				C453.467,765.848,453.58,766.205,453.58,766.68 M458.664,770.447c0-0.686-0.105-1.273-0.315-1.764
				c-0.209-0.492-0.498-0.867-0.865-1.127c-0.367-0.264-0.783-0.396-1.232-0.396c-0.715,0-1.318,0.283-1.809,0.844
				c-0.492,0.566-0.74,1.394-0.74,2.492c0,1.027,0.244,1.834,0.736,2.406c0.486,0.574,1.086,0.859,1.813,0.859
				c0.428,0,0.83-0.127,1.197-0.373c0.371-0.252,0.664-0.627,0.883-1.127C458.553,771.76,458.664,771.154,458.664,770.447"/>
			<path style="fill:#074661;" d="M463.881,764.014c-0.363,0-0.67-0.115-0.924-0.336c-0.26-0.223-0.387-0.531-0.387-0.935
				c0-0.369,0.131-0.67,0.397-0.91c0.262-0.234,0.566-0.355,0.914-0.355c0.34,0,0.635,0.105,0.892,0.318
				c0.26,0.219,0.391,0.535,0.391,0.947c0,0.398-0.127,0.711-0.377,0.935C464.533,763.898,464.232,764.014,463.881,764.014
				 M465.164,766.691v7.502c0,0.516-0.123,0.908-0.369,1.172c-0.25,0.27-0.561,0.4-0.941,0.4c-0.381,0-0.685-0.133-0.928-0.406
				c-0.234-0.275-0.355-0.664-0.355-1.166v-7.428c0-0.51,0.121-0.895,0.355-1.154c0.242-0.264,0.547-0.391,0.928-0.391
				c0.381,0,0.691,0.127,0.941,0.391C465.041,765.871,465.164,766.234,465.164,766.691"/>
			<path style="fill:#074661;" d="M473.523,774.582l-2.283-3.766l-1.408,1.328v2.066c0,0.498-0.133,0.881-0.397,1.148
				c-0.258,0.273-0.566,0.406-0.906,0.406c-0.398,0-0.715-0.131-0.941-0.4c-0.227-0.264-0.344-0.656-0.344-1.174v-11.063
				c0-0.574,0.115-1.012,0.332-1.314c0.223-0.305,0.545-0.451,0.953-0.451c0.398,0,0.713,0.137,0.949,0.41
				c0.234,0.272,0.354,0.674,0.354,1.203v6.293l2.916-3.063c0.361-0.377,0.633-0.641,0.826-0.779c0.19-0.139,0.42-0.207,0.69-0.207
				c0.326,0,0.594,0.104,0.816,0.309c0.211,0.205,0.32,0.465,0.32,0.773c0,0.379-0.354,0.889-1.055,1.522l-1.377,1.262l2.658,4.184
				c0.193,0.313,0.34,0.543,0.424,0.705c0.084,0.16,0.131,0.32,0.131,0.463c0,0.412-0.115,0.734-0.342,0.975
				c-0.225,0.236-0.523,0.354-0.885,0.354c-0.316,0-0.564-0.08-0.734-0.256C474.051,775.338,473.814,775.027,473.523,774.582"/>
			<path style="fill:#074661;" d="M479.16,775.766c-0.393,0-0.729-0.125-1.014-0.381c-0.285-0.248-0.43-0.606-0.43-1.065
				c0-0.385,0.139-0.719,0.41-0.994c0.275-0.279,0.607-0.42,1.008-0.42c0.398,0,0.736,0.141,1.023,0.412
				c0.279,0.275,0.422,0.613,0.422,1.002c0,0.453-0.143,0.809-0.422,1.061C479.871,775.641,479.539,775.766,479.16,775.766"/>
			<path style="fill:#074661;" d="M492.059,772.557c0,0.32-0.098,0.668-0.291,1.033c-0.191,0.371-0.488,0.719-0.887,1.051
				c-0.395,0.332-0.891,0.602-1.494,0.803c-0.602,0.203-1.281,0.307-2.031,0.307c-1.605,0-2.858-0.469-3.758-1.4
				c-0.895-0.935-1.346-2.189-1.346-3.76c0-1.068,0.205-2.006,0.619-2.824c0.408-0.814,1.004-1.447,1.781-1.895
				c0.779-0.447,1.717-0.67,2.795-0.67c0.674,0,1.287,0.098,1.852,0.295c0.561,0.195,1.033,0.451,1.426,0.76
				c0.387,0.314,0.686,0.642,0.889,0.992c0.207,0.352,0.309,0.68,0.309,0.986c0,0.309-0.113,0.572-0.344,0.787
				c-0.234,0.215-0.516,0.324-0.838,0.324c-0.219,0-0.398-0.057-0.541-0.166c-0.145-0.111-0.305-0.289-0.479-0.541
				c-0.318-0.478-0.646-0.842-0.996-1.08c-0.344-0.242-0.781-0.361-1.314-0.361c-0.762,0-1.383,0.297-1.854,0.896
				c-0.467,0.596-0.703,1.42-0.703,2.455c0,0.488,0.063,0.939,0.184,1.348c0.117,0.406,0.291,0.756,0.52,1.043
				c0.23,0.287,0.504,0.506,0.826,0.654c0.324,0.154,0.682,0.227,1.065,0.227c0.521,0,0.967-0.121,1.336-0.361
				c0.377-0.24,0.703-0.607,0.986-1.102c0.158-0.291,0.328-0.518,0.51-0.684c0.182-0.164,0.408-0.25,0.676-0.25
				c0.316,0,0.58,0.123,0.785,0.363C491.951,772.027,492.059,772.285,492.059,772.557"/>
			<path style="fill:#074661;" d="M503.248,770.496c0,0.77-0.121,1.484-0.355,2.139c-0.246,0.652-0.592,1.213-1.049,1.678
				c-0.455,0.469-1.002,0.828-1.633,1.08c-0.639,0.248-1.35,0.375-2.139,0.375c-0.785,0-1.492-0.127-2.121-0.383
				c-0.623-0.248-1.17-0.613-1.625-1.082c-0.461-0.477-0.809-1.033-1.053-1.676c-0.228-0.645-0.35-1.356-0.35-2.131
				c0-0.787,0.123-1.506,0.357-2.158c0.242-0.654,0.59-1.213,1.039-1.674c0.451-0.461,0.994-0.816,1.631-1.07
				c0.644-0.248,1.35-0.373,2.121-0.373c0.785,0,1.498,0.125,2.139,0.381c0.639,0.252,1.184,0.615,1.645,1.08
				c0.457,0.475,0.803,1.029,1.039,1.672C503.129,769.004,503.248,769.713,503.248,770.496 M500.645,770.496
				c0-1.059-0.234-1.881-0.697-2.469c-0.463-0.596-1.09-0.889-1.875-0.889c-0.508,0-0.955,0.133-1.342,0.395
				c-0.387,0.262-0.682,0.648-0.891,1.164c-0.209,0.514-0.314,1.113-0.314,1.799c0,0.678,0.102,1.268,0.309,1.773
				c0.209,0.51,0.502,0.897,0.887,1.166c0.385,0.266,0.834,0.404,1.352,0.404c0.785,0,1.412-0.297,1.875-0.892
				C500.41,772.357,500.645,771.537,500.645,770.496"/>
			<path style="fill:#074661;" d="M513.141,770.685v3.447c0,0.547-0.121,0.951-0.369,1.227c-0.25,0.273-0.572,0.408-0.978,0.408
				c-0.393,0-0.713-0.135-0.951-0.408c-0.246-0.275-0.371-0.68-0.371-1.227v-4.131c0-0.654-0.021-1.162-0.064-1.525
				c-0.045-0.354-0.168-0.654-0.361-0.883c-0.197-0.234-0.51-0.352-0.932-0.352c-0.85,0-1.406,0.291-1.676,0.881
				c-0.268,0.576-0.406,1.414-0.406,2.508v3.502c0,0.537-0.123,0.945-0.361,1.223c-0.25,0.273-0.568,0.412-0.965,0.412
				c-0.396,0-0.717-0.139-0.967-0.412c-0.252-0.277-0.377-0.686-0.377-1.223v-7.42c0-0.488,0.111-0.859,0.336-1.111
				c0.228-0.256,0.525-0.381,0.889-0.381c0.358,0,0.652,0.123,0.893,0.355c0.236,0.238,0.354,0.566,0.354,0.984v0.244
				c0.453-0.535,0.936-0.932,1.445-1.18c0.516-0.26,1.082-0.387,1.713-0.387c0.65,0,1.211,0.131,1.678,0.391
				c0.469,0.26,0.853,0.654,1.16,1.176c0.44-0.527,0.908-0.922,1.41-1.18c0.5-0.258,1.053-0.387,1.662-0.387
				c0.705,0,1.32,0.143,1.834,0.42c0.51,0.277,0.893,0.68,1.146,1.195c0.221,0.473,0.33,1.209,0.33,2.217v5.063
				c0,0.547-0.121,0.951-0.367,1.227c-0.246,0.273-0.574,0.408-0.979,0.408c-0.394,0-0.715-0.139-0.965-0.412
				c-0.25-0.277-0.377-0.686-0.377-1.223v-4.361c0-0.559-0.023-1.004-0.068-1.338c-0.047-0.338-0.178-0.621-0.383-0.848
				c-0.213-0.227-0.531-0.344-0.953-0.344c-0.342,0-0.666,0.107-0.975,0.309c-0.307,0.197-0.547,0.477-0.721,0.813
				C513.238,768.801,513.141,769.576,513.141,770.685"/>
		</g>
		<g>
			<path style="fill:#074661;" d="M392.435,769.867c-0.002-0.004-0.002-0.01-0.002-0.018
				C392.434,769.857,392.434,769.863,392.435,769.867z"/>
			<path style="fill:#074661;" d="M392.566,770.697c0.002,0,0.002,0,0.003,0c-0.05-0.236-0.089-0.471-0.119-0.703
				C392.48,770.229,392.52,770.463,392.566,770.697z"/>
			<path style="fill:#074661;" d="M393.425,773.104c-0.006-0.01-0.011-0.022-0.018-0.033
				C393.414,773.082,393.419,773.094,393.425,773.104z"/>
			<path style="fill:#074661;" d="M393.343,772.943c-0.023-0.045-0.044-0.09-0.066-0.135
				C393.299,772.856,393.32,772.898,393.343,772.943z"/>
			<path style="fill:#074661;" d="M392.808,771.623c0.127,0.4,0.279,0.789,0.457,1.158c-0.181-0.377-0.33-0.766-0.454-1.158
				C392.81,771.623,392.809,771.623,392.808,771.623z"/>
			<path style="fill:#074661;" d="M402.473,759.932c0.501,0,0.871,0.039,1.295,0.111l0.121-0.764c0,0-1.172-0.359-2.711-0.234
				l-0.121-0.414c0.479-0.102,0.838-0.527,0.838-1.035c0-0.582-0.475-1.053-1.058-1.053s-1.056,0.471-1.056,1.053
				c0,0.508,0.358,0.934,0.836,1.035l0.134,0.463c-1.634,0.225-2.935,0.861-2.935,0.861l0.23,0.705
				c0.988-0.328,1.846-0.529,2.624-0.613C401.433,759.967,402.006,759.932,402.473,759.932z"/>
			<path style="fill:#074661;" d="M393.405,763.789l0.006-0.008c0.038-0.049,0.075-0.096,0.113-0.143l-0.314-0.225l-0.487-0.358
				c-0.027,0.039-0.795,0.744-1.401,2.049c-0.025-0.041-0.056-0.082-0.09-0.119c-0.182-0.199-0.436-0.301-0.759-0.295
				c-0.004,0-0.009,0-0.015,0c-0.199,0-0.337-0.066-0.427-0.146c0.09-0.113,0.144-0.256,0.144-0.414c0-0.367-0.3-0.668-0.67-0.668
				c-0.368,0-0.668,0.301-0.668,0.668c0,0.371,0.3,0.67,0.668,0.67c0.059,0,0.113-0.01,0.167-0.021
				c0.165,0.184,0.426,0.342,0.808,0.334c0.197-0.002,0.341,0.049,0.438,0.156c0.111,0.121,0.148,0.295,0.16,0.428
				c-0.001,0.002-0.001,0.004-0.003,0.004c-0.436,1.189-0.311,2.67-0.311,2.67l1.058,0.043c0.022-0.539,0.099-1.483,0.371-2.231
				C392.719,764.734,393.378,763.828,393.405,763.789z"/>
			<path style="fill:#074661;" d="M411.672,760.815c-0.367,0-0.668,0.299-0.668,0.67c0,0.057,0.008,0.111,0.023,0.164
				c-0.184,0.166-0.344,0.428-0.338,0.811c0.004,0.197-0.047,0.34-0.154,0.438c-0.084,0.074-0.191,0.115-0.295,0.141
				c-0.787-1.104-1.756-1.775-1.756-1.775l-0.76,0.813c0.574,0.521,1.16,1.176,1.729,1.99c0.395,0.564,0.799,1.291,1.137,2.016
				l1.023-0.486c0,0-0.467-1.156-1.125-2.192c0.113-0.041,0.229-0.103,0.33-0.193c0.201-0.18,0.299-0.436,0.293-0.758
				c-0.002-0.207,0.066-0.348,0.148-0.441c0.115,0.088,0.258,0.142,0.412,0.142c0.371,0,0.67-0.299,0.67-0.668
				C412.342,761.113,412.043,760.815,411.672,760.815z"/>
			<path style="fill:#074661;" d="M409.016,770.018c-1.41,0.686-3.729,1.594-6.782,2.02c-1.198,0.166-2.359,0.227-3.428,0.227
				c-1.391,0-2.62-0.103-3.563-0.223c-1.076-0.135-1.918-0.301-2.433-0.418c0.124,0.393,0.274,0.781,0.454,1.158
				c0.003,0.01,0.008,0.021,0.013,0.027c0.022,0.045,0.043,0.09,0.066,0.135c0.021,0.043,0.043,0.086,0.064,0.127
				c0.007,0.012,0.012,0.023,0.018,0.033c0.303,0.57,0.666,1.094,1.08,1.549c1.44,1.574,2.907,1.824,2.921,1.826l0.023,0.002
				l0.022,0.008c0.013,0.006,1.313,0.426,3.291,0.426c1.945,0,3.855-0.393,5.674-1.168c1.348-0.69,2.623-1.736,3.254-2.67
				c0.488-0.723,0.842-1.492,1.051-2.293c0.111-0.426,0.199-1.107,0.146-1.826C410.49,769.225,409.863,769.604,409.016,770.018z"/>
			<path style="fill:#074661;" d="M393.857,764.123c-0.041,0.061-0.652,0.926-1.135,2.254c-0.362,0.994-0.346,2.443-0.346,2.459
				v0.004c0,0.34,0.018,0.676,0.057,1.01c0,0.008,0,0.014,0.002,0.018c0.004,0.043,0.011,0.084,0.015,0.127
				c0.03,0.233,0.069,0.467,0.119,0.703c0.7,0.178,4.878,1.152,9.548,0.502c2.928-0.408,5.15-1.273,6.5-1.928
				c1.121-0.543,1.842-1.035,2.119-1.238c-0.277-1.027-1.041-2.641-1.742-3.646c-2.006-2.865-4.168-3.6-5.277-3.783
				c-0.425-0.068-0.764-0.109-1.244-0.109c-0.447,0-1.002,0.037-1.743,0.115c-0.743,0.076-1.571,0.272-2.532,0.596
				c-1.348,0.451-2.567,1.158-3.526,2.047l-0.033,0.031C394.496,763.414,394.199,763.69,393.857,764.123z M406.127,763.457
				c0.961,0,1.744,0.781,1.744,1.742c0,0.963-0.783,1.744-1.744,1.744c-0.961,0-1.742-0.781-1.742-1.744
				C404.385,764.238,405.166,763.457,406.127,763.457z M397.886,763.387c1.557,0,2.816,1.262,2.816,2.818
				c0,1.555-1.26,2.814-2.816,2.814c-1.555,0-2.816-1.26-2.816-2.814C395.069,764.648,396.331,763.387,397.886,763.387z"/>
		</g>
	</g>
</g>
<g id="OBJECTS">
	<g>
		<polygon style="fill:#074661;" points="153.923,221.693 191.377,184.24 191.377,131.272 153.923,93.819 100.956,93.819 
			63.502,131.272 63.502,184.24 100.956,221.693 		"/>
		<g>
			<polygon style="fill:#FF859E;" points="107.396,169.734 84.547,146.886 84.547,114.572 107.396,91.724 139.708,91.724 
				162.557,114.572 162.557,146.886 139.708,169.734 			"/>
			<polygon style="fill:#FF6988;" points="110.76,161.61 92.67,143.521 92.67,117.937 110.76,99.848 136.343,99.848 
				154.433,117.937 154.433,143.521 136.343,161.61 			"/>
			<polygon style="fill:#E01D46;" points="97.068,194.666 107.396,169.734 139.708,169.734 150.035,194.666 			"/>
			<polygon style="fill:#FF2150;" points="107.396,169.734 84.547,146.886 59.614,157.213 97.068,194.666 			"/>
			<polygon style="fill:#C70C33;" points="150.035,194.666 139.708,169.734 162.557,146.886 187.489,157.213 			"/>
			<polygon style="fill:#E01D46;" points="162.557,146.886 162.557,114.572 187.489,104.245 187.489,157.213 			"/>
			<polygon style="fill:#FF4D72;" points="84.547,146.886 84.547,114.572 59.614,104.245 59.614,157.213 			"/>
			<polygon style="fill:#FF2150;" points="162.557,114.572 139.708,91.724 150.035,66.792 187.489,104.245 			"/>
			<polygon style="fill:#FF4D72;" points="107.396,91.724 97.068,66.792 150.035,66.792 139.708,91.724 			"/>
			<polygon style="fill:#FF6384;" points="84.547,114.572 107.396,91.724 97.068,66.792 59.614,104.245 			"/>
			<polygon style="fill:#FFFFFF;" points="109.616,90.28 126.14,93.828 109.616,97.375 106.069,113.898 102.521,97.375 
				85.998,93.827 102.521,90.28 106.068,73.757 			"/>
		</g>
	</g>
	<g>
		<path style="fill:#074661;" d="M518.854,87.343c0,0-26.816,0-26.816,0.001h-26.816h-18.939l-28.281,42.532l74.037,98.293
			l74.037-98.293l-30.334,9.376h-67.299l0,0c11.475,0,23.596,0,23.596,0l43.703-0.001l30.334-9.376l-28.279-42.532L518.854,87.343z"
			/>
		<g>
			<polygon style="fill:#ACE4FF;" points="531.852,112.225 488.15,201.142 444.447,112.225 			"/>
			<polygon style="fill:#D1F0FF;" points="444.447,112.225 414.113,102.849 488.15,201.142 			"/>
			<polygon style="fill:#7ECCF2;" points="531.852,112.225 562.186,102.849 488.15,201.142 			"/>
			<polygon style="fill:#D1F0FF;" points="514.967,60.316 488.15,60.316 461.334,60.316 444.447,112.225 488.15,112.225 
				531.854,112.225 			"/>
			<polygon style="fill:#ACE4FF;" points="531.854,112.225 562.186,102.849 533.907,60.316 514.967,60.316 			"/>
			<polygon style="fill:#ACE4FF;" points="444.447,112.225 461.334,60.316 442.394,60.316 414.113,102.849 			"/>
			<polygon style="fill:#FFFFFF;" points="449.182,108.924 464.554,112.225 449.182,115.525 445.882,130.896 442.582,115.525 
				427.21,112.225 442.582,108.924 445.88,93.552 			"/>
		</g>
	</g>
	<g>
		<polygon style="fill:#074661;" points="556.626,404.611 492.038,305.72 427.45,404.611 492.038,503.506 		"/>
		<g>
			<polygon style="fill:#FFD940;" points="458.896,387.629 488.15,476.478 517.403,387.629 			"/>
			<polygon style="fill:#F2C61A;" points="552.738,377.585 488.15,476.478 517.403,387.629 			"/>
			<polygon style="fill:#FFDE59;" points="552.738,377.585 488.15,278.693 517.403,387.629 			"/>
			<polygon style="fill:#FFE061;" points="458.896,387.629 488.15,476.478 423.561,377.585 			"/>
			<polygon style="fill:#FFE887;" points="458.896,387.629 488.15,278.693 517.403,387.629 			"/>
			<polygon style="fill:#FFEFAB;" points="458.896,387.629 488.15,278.693 423.561,377.585 			"/>
			<polygon style="fill:#FFFFFF;" points="464.569,384.329 479.941,387.63 464.569,390.93 461.27,406.301 457.97,390.93 
				442.598,387.629 457.97,384.329 461.268,368.957 			"/>
		</g>
	</g>
	<g>
		<polygon style="fill:#074661;" points="265.512,653.133 262.592,653.76 264.907,654.258 229.595,719.854 389.874,719.854 
			309.734,570.984 		"/>
		<g>
			<polygon style="fill:#FF2150;" points="332.331,626.734 305.845,675.935 279.359,626.734 			"/>
			<polygon style="fill:#E01D46;" points="332.331,626.734 385.985,692.828 305.845,675.935 			"/>
			<polygon style="fill:#E01D46;" points="279.359,626.734 305.845,675.935 225.707,692.828 			"/>
			<polygon style="fill:#FF4D72;" points="279.359,626.734 305.846,543.957 332.331,626.734 			"/>
			<polygon style="fill:#C70C33;" points="305.845,675.935 385.985,692.828 225.707,692.828 			"/>
			<polygon style="fill:#FF3B64;" points="385.985,692.828 305.846,543.957 332.331,626.734 			"/>
			<polygon style="fill:#FF3B64;" points="279.359,626.734 305.846,543.957 225.707,692.828 			"/>
			<polygon style="fill:#FFFFFF;" points="280.675,623.434 296.047,626.734 280.675,630.035 277.375,645.406 274.076,630.035 
				258.704,626.734 274.076,623.434 277.374,608.063 			"/>
		</g>
	</g>
	<g>
		<polygon style="fill:#074661;" points="446.272,571.313 417.991,641.283 455.011,690.004 492.028,738.727 529.048,690.004 
			566.065,641.283 537.786,571.313 		"/>
		<g>
			<polygon style="fill:#ACE4FF;" points="522.634,621.56 488.141,711.699 453.646,621.56 			"/>
			<polygon style="fill:#7ECCF2;" points="453.646,621.56 451.122,662.979 488.141,711.699 			"/>
			<polygon style="fill:#ACE4FF;" points="453.646,621.56 414.103,614.256 451.122,662.979 			"/>
			<polygon style="fill:#7ECCF2;" points="522.635,621.56 525.159,662.979 488.141,711.699 			"/>
			<polygon style="fill:#ACE4FF;" points="522.635,621.56 562.178,614.256 525.159,662.979 			"/>
			<polygon style="fill:#D1F0FF;" points="453.646,621.56 442.384,544.287 414.103,614.256 			"/>
			<polygon style="fill:#D1F0FF;" points="522.635,621.56 533.897,544.287 562.178,614.256 			"/>
			<polygon style="fill:#7ECCF2;" points="522.635,621.56 488.15,578.066 453.646,621.56 			"/>
			<polygon style="fill:#ACE4FF;" points="488.15,578.066 442.384,544.287 453.646,621.56 			"/>
			<polygon style="fill:#ACE4FF;" points="488.15,578.066 533.897,544.287 522.635,621.56 			"/>
			<polygon style="fill:#D1F0FF;" points="533.897,544.287 442.384,544.287 488.15,578.066 			"/>
			<polygon style="fill:#FFFFFF;" points="456.946,618.26 472.318,621.56 456.946,624.861 453.646,640.232 450.347,624.861 
				434.975,621.56 450.347,618.26 453.645,602.889 			"/>
		</g>
	</g>
	<g>
		<polygon style="fill:#074661;" points="651.099,229.28 697.577,229.28 735.179,201.96 749.542,157.756 735.179,113.552 
			697.577,86.233 651.099,86.233 613.495,113.552 599.134,157.756 614.585,202.751 		"/>
		<g>
			<polygon style="fill:#FF8000;" points="656.172,174.672 633.069,157.888 624.245,130.73 633.069,103.571 656.172,86.787 
				684.727,86.787 707.829,103.571 716.653,130.73 707.829,157.888 684.727,174.672 			"/>
			<polygon style="fill:#D46A01;" points="657.175,171.584 635.696,155.979 627.492,130.73 635.696,105.48 657.175,89.875 
				683.724,89.875 705.202,105.48 713.406,130.73 705.202,155.979 683.724,171.584 			"/>
			<polygon style="fill:#FF972E;" points="658.231,168.333 638.462,153.97 630.911,130.73 638.462,107.489 658.231,93.127 
				682.667,93.127 702.436,107.489 709.987,130.73 702.436,153.97 682.667,168.333 			"/>
			<polygon style="fill:#D46A01;" points="647.21,202.253 656.172,174.672 684.727,174.672 693.688,202.253 			"/>
			<polygon style="fill:#FF8000;" points="656.172,174.672 633.069,157.888 610.696,175.725 647.21,202.253 			"/>
			<polygon style="fill:#FF972E;" points="610.696,175.725 633.069,157.888 624.245,130.73 595.245,130.73 			"/>
			<polygon style="fill:#FF8000;" points="684.727,174.672 707.829,157.888 731.291,174.934 693.688,202.253 			"/>
			<polygon style="fill:#FF972E;" points="707.829,157.888 716.653,130.73 745.653,130.73 731.291,174.934 			"/>
			<polygon style="fill:#FFAE5C;" points="716.653,130.73 707.829,103.571 731.291,86.525 745.653,130.73 			"/>
			<polygon style="fill:#FFBE7D;" points="707.829,103.571 684.727,86.787 693.688,59.206 731.291,86.525 			"/>
			<polygon style="fill:#FFD6AD;" points="656.172,86.787 647.21,59.206 693.688,59.206 684.727,86.787 			"/>
			<polygon style="fill:#FFAE5C;" points="624.245,130.73 633.069,103.571 609.607,86.525 595.245,130.73 			"/>
			<polygon style="fill:#FFBE7D;" points="633.069,103.571 656.172,86.787 647.21,59.206 609.607,86.525 			"/>
			<polygon style="fill:#FFFFFF;" points="638.861,102.159 654.233,105.46 638.861,108.76 635.561,124.131 632.262,108.76 
				616.89,105.459 632.262,102.159 635.56,86.787 			"/>
			<polygon style="fill:#FFFFFF;" points="708.127,155.053 715.719,156.684 708.127,158.314 706.497,165.905 704.867,158.314 
				697.275,156.683 704.867,155.053 706.496,147.461 			"/>
		</g>
	</g>
	<g>
		<polygon style="fill:#074661;" points="107.104,322.117 91.735,318.817 88.433,303.445 85.135,318.817 69.763,322.117 
			84.674,325.319 58.235,371.092 78.601,430.531 127.336,486.832 127.44,487.107 127.508,487.029 127.576,487.107 127.535,486.998 
			176.415,430.531 196.645,370.82 168.196,322.117 		"/>
		<g>
			<polygon style="fill:#8BDA4B;" points="123.688,460.08 106.33,414.092 74.713,403.504 			"/>
			<polygon style="fill:#539C17;" points="123.552,460.08 140.909,414.092 172.526,403.504 			"/>
			<polygon style="fill:#66BF1C;" points="106.33,414.092 140.909,414.092 123.552,460.08 			"/>
			<polygon style="fill:#9AED58;" points="54.347,344.065 106.33,414.092 74.713,403.504 			"/>
			<polygon style="fill:#66BF1C;" points="140.909,414.092 172.526,403.504 192.757,343.793 			"/>
			<polygon style="fill:#9AED58;" points="106.33,414.092 123.688,354.379 140.909,414.092 			"/>
			<polygon style="fill:#8BDA4B;" points="123.688,354.379 192.757,343.793 140.909,414.092 			"/>
			<polygon style="fill:#8BDA4B;" points="123.688,354.379 106.33,414.092 54.347,344.065 			"/>
			<polygon style="fill:#9AED58;" points="123.688,354.379 164.308,295.09 192.757,343.793 			"/>
			<polygon style="fill:#9AED58;" points="123.688,354.379 82.635,295.09 54.347,344.065 			"/>
			<polygon style="fill:#B1FF73;" points="82.635,295.09 164.308,295.09 123.688,354.379 			"/>
			<polygon style="fill:#FFFFFF;" points="87.847,291.79 103.219,295.091 87.847,298.391 84.547,313.762 81.247,298.391 
				65.875,295.09 81.247,291.79 84.545,276.418 			"/>
			<polygon style="fill:#FFFFFF;" points="142.539,412.461 150.131,414.092 142.539,415.723 140.909,423.315 139.279,415.723 
				131.688,414.092 139.279,412.461 140.908,404.869 			"/>
		</g>
	</g>
	<g>
		<polygon style="fill:#074661;" points="366.653,448.852 366.653,360.373 309.739,316.133 309.739,352.074 281.353,375.171 
			281.338,375.168 309.721,352.074 309.721,316.133 252.807,360.373 252.807,448.852 309.721,493.092 309.721,457.15 
			277.436,430.881 277.436,396.926 277.455,397.015 277.455,430.881 309.739,457.15 309.739,493.092 		"/>
		<g>
			<polygon style="fill:#B5211D;" points="338.135,403.853 305.851,430.123 273.567,403.853 273.567,351.316 305.851,325.047 
				338.135,351.316 			"/>
			<polygon style="fill:#801814;" points="335.946,402.545 305.851,427.506 275.756,402.545 275.756,352.625 305.851,327.665 
				335.946,352.625 			"/>
			<polygon style="fill:#DD3B25;" points="333.347,401.06 305.851,424.537 278.355,401.06 278.355,354.109 305.851,330.634 
				333.347,354.109 			"/>
			<polygon style="fill:#801814;" points="305.851,466.065 305.851,430.123 362.765,421.824 			"/>
			<polygon style="fill:#B5211D;" points="305.851,430.123 338.135,403.853 362.765,421.824 			"/>
			<polygon style="fill:#801814;" points="362.765,421.824 338.135,403.853 362.765,333.346 			"/>
			<polygon style="fill:#B5211D;" points="338.135,403.853 338.135,351.316 362.765,333.346 			"/>
			<polygon style="fill:#F55038;" points="338.135,351.316 305.851,289.106 305.851,325.047 			"/>
			<polygon style="fill:#DD3B25;" points="362.765,333.346 305.851,289.106 338.135,351.316 			"/>
			<polygon style="fill:#B5211D;" points="305.832,466.065 305.832,430.123 248.918,421.824 			"/>
			<polygon style="fill:#DD3B25;" points="305.832,430.123 273.548,403.853 248.918,421.824 			"/>
			<polygon style="fill:#B5211D;" points="248.918,421.824 273.548,403.853 248.918,333.346 			"/>
			<polygon style="fill:#DD3B25;" points="273.548,403.853 273.548,351.316 248.918,333.346 			"/>
			<polygon style="fill:#DD3B25;" points="273.548,351.316 305.832,289.106 305.832,325.047 			"/>
			<polygon style="fill:#F55038;" points="248.918,333.346 305.832,289.106 273.548,351.316 			"/>
			<polygon style="fill:#FFFFFF;" points="276.867,348.016 292.239,351.317 276.867,354.617 273.567,369.988 270.267,354.617 
				254.895,351.316 270.267,348.016 273.565,332.644 			"/>
			<polygon style="fill:#FFFFFF;" points="335.938,401.875 343.529,403.506 335.938,405.135 334.308,412.727 332.678,405.135 
				325.086,403.506 332.678,401.875 334.307,394.283 			"/>
		</g>
	</g>
	<g>
		<polygon style="fill:#074661;" points="629.78,335.707 602.243,425.701 674.337,491.518 746.433,425.701 718.894,335.707 		"/>
		<g>
			<polygon style="fill:#00DEBA;" points="641.438,330.634 623.51,389.228 670.449,432.078 717.389,389.228 699.459,330.634 			"/>
			<polygon style="fill:#00D1AF;" points="647.391,339.526 633.141,386.098 670.449,420.156 707.758,386.098 693.507,339.526 			"/>
			<polygon style="fill:#00BD9F;" points="670.449,464.49 670.449,432.078 623.51,389.228 598.354,398.674 			"/>
			<polygon style="fill:#00A686;" points="670.449,464.49 670.449,432.078 717.389,389.228 742.544,398.674 			"/>
			<polygon style="fill:#00BD9F;" points="717.389,389.228 699.459,330.634 715.006,308.68 742.544,398.674 			"/>
			<polygon style="fill:#00D6B3;" points="623.51,389.228 641.438,330.634 625.892,308.68 598.354,398.674 			"/>
			<polygon style="fill:#00EDC7;" points="625.892,308.68 715.006,308.68 699.459,330.634 641.438,330.634 			"/>
			<polygon style="fill:#FFFFFF;" points="644.738,329.344 660.11,332.645 644.738,335.945 641.438,351.316 638.139,335.945 
				622.767,332.644 638.139,329.344 641.436,313.972 			"/>
			<polygon style="fill:#FFFFFF;" points="719.019,390.897 726.61,392.528 719.019,394.159 717.389,401.75 715.759,394.159 
				708.167,392.528 715.759,390.897 717.388,383.306 			"/>
		</g>
	</g>
	<g>
		<rect x="71.185" y="571.313" style="fill:#074661;" width="112.51" height="154.549"/>
		<g>
			<polygon style="fill:#DE6ECA;" points="92.67,674.055 67.297,698.834 67.297,544.287 92.67,569.066 			"/>
			<polygon style="fill:#C255AF;" points="179.807,698.834 67.297,698.834 92.67,674.055 154.433,674.055 			"/>
			<polygon style="fill:#DE6ECA;" points="179.807,698.834 154.433,674.055 154.433,569.066 179.807,544.287 			"/>
			<polygon style="fill:#F589E1;" points="154.433,569.066 92.67,569.066 67.297,544.287 179.807,544.287 			"/>
			<rect x="92.67" y="569.066" style="fill:#AD4A9C;" width="61.763" height="104.988"/>
			<rect x="99.064" y="574.066" style="fill:#DE6ECA;" width="48.975" height="94.988"/>
			<polygon style="fill:#FFFFFF;" points="95.97,570.766 111.342,574.066 95.97,577.367 92.67,592.738 89.371,577.367 
				73.998,574.066 89.371,570.766 92.669,555.394 			"/>
			<polygon style="fill:#FFFFFF;" points="156.063,672.424 163.655,674.055 156.063,675.685 154.433,683.277 152.803,675.685 
				145.211,674.055 152.803,672.424 154.432,664.832 			"/>
		</g>
	</g>
	<g>
		<polygon style="fill:#074661;" points="674.208,569.883 624.497,615.996 599.329,659.928 626.259,727.291 722.602,727.291 
			749.085,659.928 723.917,615.996 		"/>
		<g>
			<polygon style="fill:#FF8000;" points="640.306,679.717 700.699,679.717 717.301,637.49 701.524,609.949 670.362,581.043 
				639.232,610.055 623.568,637.658 			"/>
			<polygon style="fill:#FFAE5C;" points="644.321,675.662 696.666,675.662 711.055,639.065 697.381,615.193 670.372,590.141 
				643.391,615.285 629.815,639.209 			"/>
			<polygon style="fill:#FF8000;" points="700.699,679.717 718.714,700.264 745.197,632.9 717.301,637.49 			"/>
			<polygon style="fill:#FF972E;" points="717.301,637.49 701.524,609.949 720.029,588.969 745.197,632.9 			"/>
			<polygon style="fill:#FFAE5C;" points="701.524,609.949 720.029,588.969 670.319,542.857 670.362,581.043 			"/>
			<polygon style="fill:#FF972E;" points="640.306,679.717 622.371,700.264 595.441,632.9 623.568,637.658 			"/>
			<polygon style="fill:#FFAE5C;" points="623.568,637.658 639.232,610.055 620.609,588.969 595.441,632.9 			"/>
			<polygon style="fill:#FFBE7D;" points="639.232,610.055 620.609,588.969 670.319,542.857 670.362,581.043 			"/>
			<polygon style="fill:#D46A01;" points="622.371,700.264 640.306,679.717 700.699,679.717 718.714,700.264 			"/>
			<polygon style="fill:#FFFFFF;" points="644.738,610.955 660.11,614.256 644.738,617.557 641.438,632.928 638.139,617.557 
				622.767,614.256 638.139,610.955 641.436,595.584 			"/>
			<polygon style="fill:#FFFFFF;" points="700.461,676.221 708.053,677.852 700.461,679.481 698.831,687.072 697.201,679.481 
				689.609,677.852 697.201,676.221 698.83,668.629 			"/>
		</g>
	</g>
	<g>
		
			<rect x="257.552" y="105.569" transform="matrix(0.7071 -0.7071 0.7071 0.7071 -20.8299 265.2242)" style="fill:#074661;" width="104.374" height="104.374"/>
		<g>
			<polygon style="fill:#F589E1;" points="305.851,90.961 266.083,130.73 232.048,130.73 305.851,56.926 			"/>
			<polygon style="fill:#B857A7;" points="379.654,130.73 305.851,204.532 305.851,170.497 345.619,130.73 			"/>
			<polygon style="fill:#DE6ECA;" points="305.851,170.497 305.851,204.532 232.048,130.73 266.083,130.73 			"/>
			<polygon style="fill:#DE6ECA;" points="379.654,130.73 345.619,130.73 305.851,90.961 305.851,56.926 			"/>
			
				<rect x="277.731" y="102.609" transform="matrix(0.7071 -0.7071 0.7071 0.7071 -2.8595 254.555)" style="fill:#A63F93;" width="56.24" height="56.24"/>
			
				<rect x="282.647" y="107.525" transform="matrix(0.7071 -0.7071 0.7071 0.7071 -2.8598 254.5542)" style="fill:#DE6ECA;" width="46.408" height="46.408"/>
			<polygon style="fill:#FFFFFF;" points="307.789,89.768 316.9,91.725 307.788,93.681 305.832,102.791 303.876,93.681 
				294.765,91.724 303.876,89.768 305.832,80.657 			"/>
			<polygon style="fill:#FFFFFF;" points="307.064,162.313 312.803,163.545 307.064,164.777 305.832,170.515 304.601,164.777 
				298.862,163.544 304.601,162.313 305.832,156.574 			"/>
		</g>
	</g>
</g>
</svg>
